<svg xmlns="http://www.w3.org/2000/svg" viewBox="0 0 1024 1024" width="1024" height="1024">
  <!-- Background rounded square -->
  <rect width="1024" height="1024" rx="230" fill="#1E6FE8"/>

  <!-- Block baris atas kiri -->
  <rect x="148" y="200" width="280" height="180" rx="36" fill="#FFFFFF"/>
  <!-- Garis dekoratif dalam block -->
  <rect x="188" y="252" width="140" height="24" rx="12" fill="#1E6FE8" opacity="0.25"/>
  <rect x="188" y="296" width="100" height="24" rx="12" fill="#1E6FE8" opacity="0.15"/>

  <!-- Block baris atas kanan -->
  <rect x="596" y="200" width="280" height="180" rx="36" fill="#FFFFFF" opacity="0.85"/>
  <rect x="636" y="252" width="120" height="24" rx="12" fill="#1E6FE8" opacity="0.25"/>
  <rect x="636" y="296" width="160" height="24" rx="12" fill="#1E6FE8" opacity="0.15"/>

  <!-- Konektor horizontal atas -->
  <rect x="428" y="272" width="168" height="40" rx="20" fill="#FFFFFF" opacity="0.4"/>

  <!-- Block tengah besar -->
  <rect x="272" y="444" width="480" height="200" rx="40" fill="#FFFFFF"/>
  <!-- Isi block tengah -->
  <rect x="320" y="496" width="200" height="28" rx="14" fill="#1E6FE8" opacity="0.2"/>
  <rect x="320" y="544" width="300" height="28" rx="14" fill="#1E6FE8" opacity="0.15"/>
  <rect x="320" y="592" width="160" height="28" rx="14" fill="#1E6FE8" opacity="0.1"/>

  <!-- Konektor vertikal kiri atas ke tengah -->
  <rect x="248" y="380" width="40" height="132" rx="20" fill="#FFFFFF" opacity="0.4"/>
  <!-- Konektor vertikal kanan atas ke tengah -->
  <rect x="736" y="380" width="40" height="132" rx="20" fill="#FFFFFF" opacity="0.4"/>

  <!-- Block bawah kiri -->
  <rect x="148" y="700" width="240" height="140" rx="36" fill="#FFFFFF" opacity="0.7"/>
  <rect x="184" y="744" width="120" height="22" rx="11" fill="#1E6FE8" opacity="0.2"/>
  <rect x="184" y="782" width="80" height="22" rx="11" fill="#1E6FE8" opacity="0.12"/>

  <!-- Block bawah tengah -->
  <rect x="432" y="700" width="160" height="140" rx="36" fill="#FFFFFF" opacity="0.55"/>

  <!-- Block bawah kanan -->
  <rect x="636" y="700" width="240" height="140" rx="36" fill="#FFFFFF" opacity="0.7"/>
  <rect x="672" y="744" width="100" height="22" rx="11" fill="#1E6FE8" opacity="0.2"/>
  <rect x="672" y="782" width="140" height="22" rx="11" fill="#1E6FE8" opacity="0.12"/>

  <!-- Konektor vertikal bawah kiri -->
  <rect x="248" y="644" width="40" height="112" rx="20" fill="#FFFFFF" opacity="0.35"/>
  <!-- Konektor vertikal bawah kanan -->
  <rect x="736" y="644" width="40" height="112" rx="20" fill="#FFFFFF" opacity="0.35"/>
  <!-- Konektor vertikal bawah tengah -->
  <rect x="492" y="644" width="40" height="112" rx="20" fill="#FFFFFF" opacity="0.3"/>
</svg>
